# xmcd CD database file
#
# Track frame offsets:
#	150
#	50867
#	92520
#	126732
#	156187
#
# Disc length: 2649 seconds
#
# Revision: 1
# Processed by: cddbd v1.5.2PL0 Copyright (c) Steve Scherf et al.
# Submitted via: CDex 1.70beta2
#
DISCID=440a5705
DTITLE=ザ・ダイソー - ネイチャーサウンド・リラクゼーション 川のせせらぎ
DYEAR=2003
DGENRE=Other
TTITLE0=二つのヴァイオリン協奏曲
TTITLE1=ヘンデルのラルゴ
TTITLE2=楽興の時
TTITLE3=ウィーンの森の物語
TTITLE4=タイスの瞑想曲
EXTD=YEAR: 2003
EXTT0=
EXTT1=
EXTT2=
EXTT3=
EXTT4=
PLAYORDER=
